<svg width="600" height="132" viewBox="0 0 600 132" fill="none" xmlns="http://www.w3.org/2000/svg">
<path d="M170.896 93V39.1818H205.373V47.3544H180.645V61.9652H203.008V70.1378H180.645V93H170.896ZM213.835 93V52.6364H223.348V93H213.835ZM218.618 46.9077C217.111 46.9077 215.815 46.4084 214.729 45.4098C213.642 44.3937 213.099 43.1761 213.099 41.7571C213.099 40.3205 213.642 39.103 214.729 38.1044C215.815 37.0883 217.111 36.5803 218.618 36.5803C220.142 36.5803 221.438 37.0883 222.507 38.1044C223.593 39.103 224.136 40.3205 224.136 41.7571C224.136 43.1761 223.593 44.3937 222.507 45.4098C221.438 46.4084 220.142 46.9077 218.618 46.9077ZM242.643 39.1818V93H233.13V39.1818H242.643ZM270.294 93.7884C266.247 93.7884 262.752 92.9474 259.809 91.2656C256.883 89.5663 254.632 87.1662 253.056 84.0653C251.479 80.947 250.691 77.2768 250.691 73.0547C250.691 68.9027 251.479 65.2588 253.056 62.1229C254.65 58.9695 256.875 56.5168 259.73 54.7649C262.586 52.9955 265.941 52.1108 269.795 52.1108C272.283 52.1108 274.63 52.5137 276.838 53.3196C279.062 54.108 281.025 55.3343 282.724 56.9986C284.441 58.6629 285.79 60.7827 286.771 63.358C287.752 65.9157 288.242 68.964 288.242 72.5028V75.4197H255.158V69.0078H279.124C279.106 67.1858 278.712 65.5653 277.941 64.1463C277.17 62.7098 276.093 61.5798 274.709 60.7564C273.343 59.933 271.748 59.5213 269.926 59.5213C267.982 59.5213 266.274 59.9943 264.802 60.9403C263.33 61.8688 262.183 63.0952 261.36 64.6193C260.554 66.1259 260.142 67.7815 260.124 69.5859V75.1832C260.124 77.5308 260.554 79.5455 261.412 81.2273C262.271 82.8916 263.471 84.1705 265.012 85.0639C266.554 85.9399 268.358 86.3778 270.426 86.3778C271.81 86.3778 273.062 86.1851 274.183 85.7997C275.305 85.3968 276.277 84.8099 277.1 84.0391C277.924 83.2682 278.546 82.3134 278.966 81.1747L287.848 82.1733C287.288 84.5208 286.219 86.5705 284.642 88.3224C283.083 90.0568 281.086 91.4058 278.651 92.3693C276.216 93.3153 273.43 93.7884 270.294 93.7884ZM315.066 93V39.1818H349.543V47.3544H324.815V61.9652H347.178V70.1378H324.815V93H315.066ZM367.518 39.1818V93H358.005V39.1818H367.518ZM377.3 93V52.6364H386.813V93H377.3ZM382.083 46.9077C380.576 46.9077 379.28 46.4084 378.193 45.4098C377.107 44.3937 376.564 43.1761 376.564 41.7571C376.564 40.3205 377.107 39.103 378.193 38.1044C379.28 37.0883 380.576 36.5803 382.083 36.5803C383.607 36.5803 384.903 37.0883 385.972 38.1044C387.058 39.103 387.601 40.3205 387.601 41.7571C387.601 43.1761 387.058 44.3937 385.972 45.4098C384.903 46.4084 383.607 46.9077 382.083 46.9077ZM396.595 108.136V52.6364H405.95V59.3111H406.502C406.992 58.33 407.684 57.2876 408.578 56.1839C409.471 55.0627 410.68 54.108 412.204 53.3196C413.728 52.5137 415.673 52.1108 418.038 52.1108C421.156 52.1108 423.968 52.9079 426.473 54.5021C428.996 56.0788 430.993 58.4176 432.465 61.5185C433.954 64.6018 434.699 68.3859 434.699 72.8707C434.699 77.303 433.971 81.0696 432.517 84.1705C431.063 87.2713 429.084 89.6364 426.578 91.2656C424.073 92.8949 421.235 93.7095 418.064 93.7095C415.752 93.7095 413.833 93.3241 412.309 92.5533C410.785 91.7824 409.559 90.8539 408.63 89.7678C407.719 88.6641 407.01 87.6217 406.502 86.6406H406.108V108.136H396.595ZM405.924 72.8182C405.924 75.4285 406.292 77.7147 407.027 79.6768C407.781 81.639 408.858 83.1719 410.26 84.2756C411.679 85.3617 413.395 85.9048 415.41 85.9048C417.512 85.9048 419.273 85.3442 420.692 84.223C422.111 83.0843 423.18 81.5339 423.898 79.5717C424.634 77.5921 425.002 75.3409 425.002 72.8182C425.002 70.313 424.643 68.0881 423.924 66.1435C423.206 64.1989 422.137 62.6747 420.718 61.571C419.299 60.4673 417.53 59.9155 415.41 59.9155C413.378 59.9155 411.652 60.4498 410.233 61.5185C408.814 62.5871 407.737 64.085 407.001 66.0121C406.283 67.9392 405.924 70.2079 405.924 72.8182ZM442.845 108.136V52.6364H452.2V59.3111H452.752C453.242 58.33 453.934 57.2876 454.828 56.1839C455.721 55.0627 456.93 54.108 458.454 53.3196C459.978 52.5137 461.923 52.1108 464.288 52.1108C467.406 52.1108 470.218 52.9079 472.723 54.5021C475.246 56.0788 477.243 58.4176 478.715 61.5185C480.204 64.6018 480.949 68.3859 480.949 72.8707C480.949 77.303 480.221 81.0696 478.767 84.1705C477.313 87.2713 475.334 89.6364 472.828 91.2656C470.323 92.8949 467.485 93.7095 464.314 93.7095C462.002 93.7095 460.083 93.3241 458.559 92.5533C457.035 91.7824 455.809 90.8539 454.88 89.7678C453.969 88.6641 453.26 87.6217 452.752 86.6406H452.358V108.136H442.845ZM452.174 72.8182C452.174 75.4285 452.542 77.7147 453.277 79.6768C454.031 81.639 455.108 83.1719 456.51 84.2756C457.929 85.3617 459.645 85.9048 461.66 85.9048C463.762 85.9048 465.523 85.3442 466.942 84.223C468.361 83.0843 469.43 81.5339 470.148 79.5717C470.884 77.5921 471.252 75.3409 471.252 72.8182C471.252 70.313 470.893 68.0881 470.174 66.1435C469.456 64.1989 468.387 62.6747 466.968 61.571C465.549 60.4673 463.78 59.9155 461.66 59.9155C459.628 59.9155 457.902 60.4498 456.483 61.5185C455.064 62.5871 453.987 64.085 453.251 66.0121C452.533 67.9392 452.174 70.2079 452.174 72.8182ZM506.964 93.7884C502.917 93.7884 499.422 92.9474 496.479 91.2656C493.553 89.5663 491.302 87.1662 489.725 84.0653C488.149 80.947 487.36 77.2768 487.36 73.0547C487.36 68.9027 488.149 65.2588 489.725 62.1229C491.32 58.9695 493.545 56.5168 496.4 54.7649C499.256 52.9955 502.611 52.1108 506.465 52.1108C508.953 52.1108 511.3 52.5137 513.507 53.3196C515.732 54.108 517.694 55.3343 519.394 56.9986C521.111 58.6629 522.46 60.7827 523.441 63.358C524.422 65.9157 524.912 68.964 524.912 72.5028V75.4197H491.828V69.0078H515.794C515.776 67.1858 515.382 65.5653 514.611 64.1463C513.84 62.7098 512.763 61.5798 511.379 60.7564C510.012 59.933 508.418 59.5213 506.596 59.5213C504.652 59.5213 502.944 59.9943 501.472 60.9403C500 61.8688 498.853 63.0952 498.029 64.6193C497.224 66.1259 496.812 67.7815 496.794 69.5859V75.1832C496.794 77.5308 497.224 79.5455 498.082 81.2273C498.94 82.8916 500.141 84.1705 501.682 85.0639C503.224 85.9399 505.028 86.3778 507.096 86.3778C508.48 86.3778 509.732 86.1851 510.853 85.7997C511.975 85.3968 512.947 84.8099 513.77 84.0391C514.594 83.2682 515.216 82.3134 515.636 81.1747L524.518 82.1733C523.958 84.5208 522.889 86.5705 521.312 88.3224C519.753 90.0568 517.756 91.4058 515.321 92.3693C512.886 93.3153 510.1 93.7884 506.964 93.7884ZM532.96 93V52.6364H542.184V59.3636H542.604C543.34 57.0336 544.601 55.2379 546.388 53.9766C548.193 52.6977 550.251 52.0582 552.564 52.0582C553.089 52.0582 553.676 52.0845 554.324 52.1371C554.99 52.1721 555.542 52.2334 555.98 52.321V61.0717C555.577 60.9316 554.938 60.8089 554.062 60.7038C553.203 60.5812 552.371 60.5199 551.565 60.5199C549.831 60.5199 548.272 60.8965 546.888 61.6499C545.521 62.3857 544.444 63.4105 543.655 64.7244C542.867 66.0384 542.473 67.5537 542.473 69.2706V93H532.96Z" fill="black"/>
<g clip-path="url(#clip0_9_2)">
<path d="M112 11H46C33.8497 11 24 20.8497 24 33V99C24 111.15 33.8497 121 46 121H112C124.15 121 134 111.15 134 99V33C134 20.8497 124.15 11 112 11Z" fill="#6D29D9"/>
<path fill-rule="evenodd" clip-rule="evenodd" d="M89.2248 43.2651C85.0936 41.0964 80.4511 40.2804 75.8844 40.9205C71.3176 41.5605 67.0317 43.6277 63.5686 46.8607C60.4628 49.7601 58.1438 53.4805 56.8385 57.6338L62.0535 54.4286C63.6448 53.4506 65.6796 54.031 66.5983 55.7249C67.5171 57.4189 66.9718 59.5849 65.3806 60.5629L53.1563 68.076C51.565 69.054 49.5302 68.4736 48.6115 66.7796L41.5538 53.7667C40.6351 52.0727 41.1803 49.9067 42.7716 48.9287C44.3629 47.9507 46.3977 48.5311 47.3164 50.225L50.3795 55.8727C52.027 50.3369 55.0672 45.3759 59.1813 41.5351C63.6339 37.3784 69.1443 34.7206 75.0159 33.8977C80.8874 33.0748 86.8563 34.1239 92.1678 36.9122C97.4792 39.7005 101.895 44.1029 104.856 49.5625C105.775 51.2565 105.229 53.4225 103.638 54.4005C102.047 55.3785 100.012 54.7981 99.0932 53.1042C96.7901 48.8578 93.3559 45.4337 89.2248 43.2651ZM104.692 62.9241C106.283 61.9461 108.318 62.5265 109.237 64.2204L116.295 77.2333C117.213 78.9273 116.668 81.0933 115.077 82.0713C113.486 83.0493 111.451 82.469 110.532 80.775L107.469 75.1273C105.821 80.6631 102.781 85.6242 98.6671 89.4649C94.2146 93.6216 88.7041 96.2795 82.8326 97.1023C76.9611 97.9252 70.9922 96.8762 65.6807 94.0878C60.3692 91.2995 55.9538 86.8972 52.9927 81.4375C52.0739 79.7436 52.6192 77.5775 54.2104 76.5995C55.8017 75.6215 57.8365 76.2019 58.7552 77.8959C61.0583 82.1423 64.4926 85.5663 68.6237 87.735C72.7548 89.9037 77.3973 90.7196 81.9641 90.0796C86.5308 89.4396 90.8167 87.3724 94.2798 84.1394C97.3857 81.2399 99.7046 77.5195 101.01 73.3663L95.7949 76.5714C94.2036 77.5494 92.1689 76.969 91.2501 75.2751C90.3314 73.5811 90.8766 71.4151 92.4679 70.4371L104.692 62.9241Z" fill="white" stroke="white" stroke-width="2" stroke-linecap="round" stroke-linejoin="round"/>
</g>
<defs>
<clipPath id="clip0_9_2">
<rect x="24" y="11" width="110" height="110" rx="55" fill="white"/>
</clipPath>
</defs>
</svg>
